<svg width="131" height="112" viewBox="0 0 131 112" fill="none" xmlns="http://www.w3.org/2000/svg">
<path d="M38.6775 0.656906C36.2775 1.4569 32.5442 4.12357 30.2775 6.65691C26.9442 10.3902 26.1442 12.6569 26.1442 17.3236C26.1442 20.5236 26.6775 24.5236 27.3442 26.2569C28.9442 30.3902 37.6108 38.7902 42.4108 40.7902C46.2775 42.3902 47.0775 45.5902 45.3442 52.1236L44.6775 54.9236L38.5442 51.7236C27.0775 45.9902 15.8775 48.1236 7.21082 57.7236C-13.3225 80.5236 13.2108 116.924 46.4108 111.457C56.5442 109.724 62.9442 106.524 69.6108 99.8569C74.4108 95.1902 75.4775 94.6569 78.2775 95.7236C84.1441 98.1236 103.477 97.5902 111.344 94.7902C120.677 91.5902 130.144 82.6569 130.144 77.0569C130.144 72.5236 126.144 68.2569 122.677 68.9236C119.344 69.5902 118.944 72.2569 122.011 73.3236C124.011 73.9902 124.811 75.3236 124.811 78.2569C124.811 89.4569 100.811 97.7236 83.3442 92.3902C77.6108 90.7902 77.4775 90.5236 79.4775 85.1902C81.6108 79.8569 81.3442 64.5236 79.0775 59.1902C76.8108 53.8569 68.4108 45.8569 60.8108 41.9902C54.8108 38.9236 54.4108 37.7236 58.0108 31.8569C62.4108 24.6569 70.2775 18.1236 78.0108 15.1902C86.9442 11.8569 102.811 12.1236 109.877 15.8569C115.477 18.7902 119.477 25.3236 119.477 31.5902C119.477 34.2569 120.144 36.9236 120.811 37.3236C121.744 37.9902 122.144 34.3902 121.877 26.5236L121.477 14.7902L114.811 12.1236C105.477 8.52357 86.5442 8.39024 77.4775 11.8569C73.8775 13.1902 68.9442 15.7236 66.6775 17.4569C64.4108 19.1902 62.1442 20.1236 61.6108 19.7236C61.2108 19.1902 60.8108 15.4569 60.8108 11.1902C60.8108 5.0569 60.2775 3.19024 58.4108 2.12357C54.5442 0.123573 43.2108 -0.67643 38.6775 0.656906ZM54.2775 7.19024C59.8775 12.7902 59.7442 21.3236 53.8775 29.4569C51.6108 32.6569 49.3442 35.3236 49.0775 35.3236C46.8108 35.3236 36.5442 27.9902 34.2775 24.7902C31.0775 20.3902 30.5442 11.7236 33.2108 8.39024C38.2775 1.99023 48.5442 1.4569 54.2775 7.19024ZM61.0775 51.7236C70.8108 59.1902 73.0775 63.7236 72.5442 74.9236C72.2775 80.1236 71.6108 84.9236 71.0775 85.4569C69.4775 87.0569 60.8108 77.8569 57.2108 70.6569C53.6108 63.5902 51.2108 47.3236 53.8775 47.3236C54.6775 47.3236 57.8775 49.3236 61.0775 51.7236ZM37.8775 55.3236C49.4775 62.3902 52.0108 79.8569 42.5442 87.3236C38.4108 90.5236 32.0108 90.7902 30.4108 87.8569C29.6108 86.3902 28.8108 86.1236 28.2775 87.0569C27.7442 87.8569 28.5442 89.7236 30.1442 91.3236C35.4775 96.6569 47.3442 93.3236 51.4775 85.1902C52.5442 83.0569 53.4775 81.0569 53.7442 80.7902C53.8775 80.5236 56.1442 82.1236 58.6775 84.3902C61.2108 86.6569 64.2775 89.0569 65.6108 89.7236C68.5442 91.3236 66.5442 94.9236 60.2775 99.8569C44.1441 112.124 20.5442 109.057 10.8108 93.3236C3.21082 81.0569 6.41082 62.3902 17.4775 55.3236C22.8108 51.8569 32.1441 51.8569 37.8775 55.3236Z" fill="black"/>
</svg>
