<svg width="216" height="108" viewBox="0 0 216 108" fill="none" xmlns="http://www.w3.org/2000/svg">
<g clip-path="url(#clip0_151_42)">
<path d="M131.808 1.00354C130.368 2.15044 130.224 3.34513 131.424 4.44425C132.528 5.44779 133.632 5.49557 134.4 4.53982C135.264 3.53628 134.256 2.34159 133.344 3.24956C132.912 3.67965 132.912 3.82301 133.44 3.82301C133.92 3.82301 133.968 3.96637 133.584 4.34867C132.72 5.20885 132 4.39646 132.192 2.77168C132.384 0.764603 133.92 0.0477886 135.6 1.1469C136.56 1.76814 136.752 2.19823 136.512 3.20177C136.08 4.82655 134.592 6.26018 133.152 6.40354C132.528 6.49911 131.472 7.02478 130.848 7.59823C130.08 8.31504 129.024 8.64956 127.536 8.74513C126.288 8.79292 125.184 9.07965 125.088 9.41416C124.704 10.4177 121.2 11.0867 119.808 10.4655C117.312 9.31858 118.704 5.97345 121.776 5.63894C122.928 5.49557 123.12 5.68673 123.264 6.73805C123.456 8.26726 122.064 9.6531 121.44 8.60177C121.2 8.21947 120.864 8.07611 120.672 8.26726C120.48 8.45841 120.576 8.8885 120.864 9.17522C121.296 9.60531 121.728 9.60531 122.64 9.17522C123.6 8.74513 123.84 8.26726 123.84 6.97699C123.84 6.06903 124.08 5.16106 124.32 5.0177C124.608 4.87434 124.8 4.49203 124.8 4.15752C124.8 3.77522 124.656 3.77522 124.224 4.20531C123.888 4.53982 122.928 4.6354 121.68 4.44425C120 4.2531 119.472 4.34867 118.608 5.20885C118.08 5.73451 117.6 6.5469 117.6 6.9292C117.6 7.83717 117.36 7.83717 115.872 6.88142C114.192 5.73451 110.976 6.26018 109.584 7.83717C108.576 9.03186 108.48 9.03186 107.904 8.21947C106.416 6.06903 103.152 5.59115 101.136 7.16814L99.936 8.12389L99.36 6.64248C98.592 4.82655 97.296 4.15752 95.184 4.53982C94.176 4.73097 93.264 4.6354 92.832 4.2531C92.448 3.91858 92.16 3.91858 92.16 4.20531C92.16 4.44425 92.448 4.92212 92.832 5.20885C93.216 5.54336 93.36 6.26018 93.216 7.02478C93.072 7.88496 93.264 8.45841 93.84 8.93628C95.088 9.79646 96.48 9.70088 96.48 8.79292C96.48 8.12389 96.336 8.12389 95.76 8.60177C94.896 9.31858 93.6 8.5062 93.6 7.16814C93.6 6.11681 94.848 5.0177 95.232 5.68673C95.424 5.97345 95.856 6.06903 96.192 5.92566C96.528 5.7823 96.96 6.02124 97.104 6.40354C97.296 6.83363 97.68 7.16814 98.064 7.16814C98.88 7.16814 98.832 9.17522 97.968 10.1788C96.816 11.5646 91.296 10.7522 91.872 9.2708C92.064 8.74513 91.92 8.69735 91.296 9.03186C90.048 9.70088 86.832 8.8885 85.824 7.64602C85.392 7.12035 84.72 6.78584 84.336 6.97699C83.904 7.12035 83.136 6.78584 82.608 6.26018C82.032 5.68673 81.408 5.25664 81.168 5.25664C80.928 5.25664 80.64 4.68319 80.496 3.91858C79.968 1.19469 83.568 -0.143362 84.768 2.34159C85.536 3.82301 85.152 4.77876 83.808 4.77876C82.992 4.77876 82.944 4.68319 83.52 4.30089C84.384 3.77522 83.856 3.1062 82.8 3.4885C81.792 3.91858 81.888 4.6354 83.088 5.25664C83.856 5.68673 84.336 5.63894 85.248 5.0177C87.6 3.4885 86.064 0.477877 82.896 0.477877C81.072 0.477877 79.056 2.53274 79.44 3.96637C79.824 5.25664 82.896 8.12389 83.904 8.12389C84.336 8.12389 84.48 8.26726 84.336 8.41062C84.144 8.60177 83.424 8.5062 82.704 8.21947C81.984 7.98053 80.928 7.55044 80.4 7.35929C79.872 7.16814 79.344 6.97699 79.2 6.97699C78.48 6.83363 75.84 5.0177 75.84 4.68319C75.84 4.2531 74.4 4.49203 71.616 5.35221C70.416 5.68673 69.744 6.30797 69.216 7.59823L68.4 9.31858L68.256 6.73805C68.064 3.63186 68.976 2.24602 70.368 3.39292C71.088 3.96637 71.184 3.96637 70.944 3.34513C70.608 2.29381 69.168 2.19823 68.112 3.15398C67.44 3.72743 67.2 4.58761 67.2 6.30797C67.2 8.31504 67.44 8.8885 68.64 10.131C69.456 10.8956 70.08 11.8513 70.08 12.2336C70.08 12.7115 70.32 12.8071 70.656 12.6159C70.992 12.377 72 12.2814 72.864 12.377C73.728 12.4248 74.976 12.1381 75.648 11.708C76.368 11.2779 77.28 11.0389 77.904 11.2301C78.912 11.5168 78.912 11.5168 78.048 10.8C77.52 10.3699 76.944 10.0354 76.704 10.0354C76.512 10.0354 76.32 9.74867 76.32 9.41416C76.32 8.36283 74.688 7.16814 73.296 7.16814C72.288 7.16814 72 7.40708 72 8.17168C72 8.69735 72.24 8.98407 72.48 8.84071C72.768 8.64956 72.864 8.31504 72.72 8.07611C72.528 7.83717 72.96 7.64602 73.632 7.64602C74.352 7.64602 75.072 8.02832 75.36 8.55398C76.08 9.93982 75.936 10.9434 75.024 10.8956C74.544 10.8956 73.728 11.0389 73.248 11.2301C72.576 11.5168 72.432 11.469 72.672 11.0867C72.912 10.7044 72.624 10.5133 71.952 10.5133C69.936 10.5133 68.928 7.93274 70.464 6.5469C71.568 5.54336 73.92 4.96991 73.92 5.73451C73.92 6.02124 74.304 6.1646 74.784 6.02124C75.264 5.87788 76.512 6.35575 77.76 7.16814C78.96 7.93274 80.208 8.60177 80.592 8.60177C81.072 8.60177 81.12 8.74513 80.736 9.22301C80.304 9.74867 80.928 9.84425 84.144 9.84425C88.416 9.84425 90.672 10.1788 91.152 10.8C91.632 11.469 97.392 11.6602 98.16 10.9912C98.688 10.5611 98.976 10.7522 99.504 12.0903C99.888 12.9982 100.8 14.1451 101.52 14.623C106.224 17.9681 107.52 19.1628 107.52 20.3575C107.52 21.4088 107.616 21.5522 108.24 21.0265C108.72 20.5965 108.96 20.5965 108.96 20.9788C108.96 21.2655 109.2 21.5044 109.44 21.5044C109.728 21.5044 109.92 20.931 109.92 20.2619C109.92 19.0195 110.304 18.5894 114.672 15.2442C116.064 14.1451 117.504 12.6159 117.792 11.8513C118.176 10.8956 118.512 10.6088 119.04 10.8478C120.24 11.4212 125.808 11.2779 126.144 10.7044C126.576 9.98761 132.144 9.17522 134.784 9.46195C136.512 9.60531 136.752 9.55752 136.512 8.8885C136.32 8.36283 136.512 8.12389 137.136 8.12389C137.664 8.12389 138.576 7.59823 139.2 6.9292C139.872 6.21239 140.88 5.73451 141.696 5.73451C142.416 5.73451 143.04 5.49557 143.04 5.20885C143.04 4.30089 145.584 5.20885 146.784 6.49911C147.792 7.64602 147.792 7.74159 147.024 8.84071C146.544 9.50974 145.824 10.0354 145.344 10.0354C144.912 10.0354 144.48 10.2743 144.384 10.6088C144.24 10.9434 143.952 10.9912 143.472 10.7522C143.088 10.5133 142.464 10.2743 142.08 10.2743C141.312 10.2743 141.36 8.79292 142.176 7.74159C142.704 7.12035 144.576 6.9292 144.384 7.50266C144.288 7.74159 144.48 7.93274 144.72 7.98053C145.008 8.07611 145.2 7.83717 145.2 7.50266C145.2 6.45133 142.704 6.5469 141.744 7.64602C141.264 8.17168 140.352 9.17522 139.68 9.89204C138.72 10.8956 138.672 11.0867 139.392 10.8478C139.92 10.6088 140.88 10.8956 141.888 11.5168C143.232 12.3292 143.76 12.4248 144.96 11.9947C145.776 11.7558 146.4 11.6124 146.4 11.7558C146.4 11.8991 147.168 11.1345 148.08 10.0354C149.472 8.36283 149.76 7.64602 149.76 5.7823C149.76 4.15752 149.52 3.24956 148.896 2.72389C147.792 1.72035 146.592 1.67257 146.208 2.62832C146.016 3.20177 146.112 3.24956 146.928 2.72389C147.696 2.24602 147.936 2.29381 148.32 2.86726C148.944 3.82301 148.944 8.26726 148.32 7.88496C148.08 7.74159 147.84 7.26372 147.84 6.9292C147.84 5.97345 146.064 4.92212 143.568 4.34867C141.648 3.91858 141.312 4.01416 140.736 4.82655C140.4 5.30442 139.776 5.73451 139.392 5.73451C139.008 5.73451 138.72 5.92566 138.72 6.1646C138.72 6.59469 136.896 7.3115 136.176 7.21593C135.984 7.16814 135.168 7.50266 134.352 7.93274C133.536 8.31504 133.008 8.45841 133.2 8.17168C133.344 7.88496 134.112 7.3115 134.88 6.9292C137.904 5.35221 138.336 1.5292 135.6 0.477877C133.824 -0.191151 133.248 -0.143362 131.808 1.00354ZM105.456 7.16814C106.32 7.16814 107.52 8.55398 107.52 9.55752C107.52 10.6566 104.544 12.5681 103.488 12.1381C102.336 11.708 102.528 10.5611 103.68 10.8478C104.352 11.0389 104.64 10.8478 104.64 10.3221C104.64 9.2708 102.432 9.31858 102.048 10.3699C101.664 11.3257 102.96 12.7115 104.688 13.1416C105.6 13.3805 106.32 13.1416 107.328 12.2336C108.72 11.0867 108.768 11.0867 109.344 11.9947C110.496 13.8106 115.2 12.8071 115.2 10.7522C115.2 9.84425 113.616 9.03186 112.848 9.55752C112.032 10.0354 112.656 11.1345 113.568 10.8C113.952 10.6566 114.24 10.8478 114.24 11.2301C114.24 11.6124 113.952 11.9947 113.664 11.9947C112.656 12.0903 111.6 11.8513 111.36 11.5168C111.216 11.3257 110.736 11.0389 110.304 10.8478C108.288 10.131 109.92 7.45487 112.656 6.88142C113.712 6.69027 114.192 6.78584 114.384 7.35929C114.576 7.78938 115.056 8.12389 115.488 8.12389C116.016 8.12389 116.16 8.36283 115.968 8.8885C115.824 9.2708 115.968 9.93982 116.352 10.3221C117.552 11.469 116.592 12.9027 112.944 15.6265C110.976 17.0602 109.248 18.5894 109.104 18.9717C108.864 19.5451 108.624 19.4496 107.712 18.4938C107.088 17.8248 105.312 16.3912 103.728 15.292C100.8 13.2372 99.792 11.469 100.8 10.2265C101.136 9.89204 101.232 9.36637 101.04 9.07965C100.848 8.74513 101.136 8.41062 101.712 8.26726C102.288 8.12389 102.72 7.69381 102.72 7.3115C102.72 6.78584 103.008 6.64248 103.824 6.88142C104.4 7.02478 105.12 7.16814 105.456 7.16814Z" fill="black"/>
<path d="M150.96 6.88142C150.624 7.69381 149.856 8.98407 149.28 9.70089C147.984 11.3257 148.416 11.9947 149.904 10.6566C150.48 10.0832 151.776 9.31858 152.832 8.8885C154.176 8.31504 154.608 7.93274 154.368 7.35929C154.224 6.97699 154.08 6.45133 154.08 6.21239C154.08 6.02124 153.504 5.73451 152.832 5.59115C151.776 5.4 151.488 5.59115 150.96 6.88142Z" fill="black"/>
<path d="M64.56 6.1646C64.416 6.45133 63.984 6.5469 63.6 6.35575C63.216 6.21239 62.88 6.30796 62.88 6.59469C62.88 6.88141 62.736 7.45487 62.592 7.83717C62.352 8.41062 62.784 8.79292 64.128 9.36637C65.184 9.79646 66.48 10.5611 67.056 11.1345C68.784 12.7115 68.88 11.708 67.248 9.46195C66.432 8.36283 65.76 7.16814 65.76 6.88141C65.76 6.06903 64.944 5.59115 64.56 6.1646Z" fill="black"/>
<path d="M152.352 9.84425C151.536 10.2265 150.576 11.0867 150.24 11.7558C149.904 12.377 149.28 12.9027 148.896 12.9027C148.464 12.9027 148.32 13.1894 148.512 13.6673C148.656 14.0973 148.8 14.7186 148.8 15.1009C148.8 15.4354 149.472 16.3434 150.24 17.0602C151.056 17.7292 151.68 18.7805 151.728 19.3062C151.728 20.2619 151.776 20.2142 152.208 19.1628C152.448 18.5416 153.216 17.6336 153.888 17.108C155.28 15.9611 155.328 13.715 153.984 13.4761C153.504 13.3805 153.12 13.5239 153.12 13.8106C153.12 14.0973 153.456 14.3363 153.84 14.3363C154.896 14.3363 154.704 16.1044 153.648 16.7257C152.256 17.4425 151.056 17.3469 151.344 16.5345C151.488 16.1522 151.248 15.7221 150.816 15.531C150.192 15.292 150.144 15.1487 150.672 14.8142C151.056 14.623 151.2 14.0973 151.008 13.6195C150.624 12.5681 151.92 11.5168 153.648 11.469C155.424 11.469 156.864 13.2372 156.72 15.292C156.624 17.3469 155.712 19.5929 155.04 19.5929C154.32 19.5929 154.464 24.9451 155.376 30.4407C156.048 34.646 156.288 35.315 157.104 35.4584C158.496 35.6496 158.64 36.6531 157.344 37.0832C156.72 37.2743 156.096 37.4177 155.952 37.4177C155.808 37.3699 155.424 38.9947 155.088 41.0018C154.752 43.3912 153.888 46.0195 152.64 48.5522C149.568 54.8602 140.832 65.4212 132.384 73.0673C127.92 77.0814 118.8 84.1062 118.032 84.1062C117.504 84.1062 109.44 92.0867 109.44 92.6602C109.44 92.8991 108.288 91.9912 106.896 90.6531C105.456 89.2673 104.496 88.0248 104.736 87.8814C104.928 87.7381 104.352 87.2602 103.44 86.8301C102.48 86.4 101.616 85.6832 101.472 85.3009C101.28 84.9186 100.992 84.5841 100.704 84.5841C100.464 84.5841 98.832 83.5805 97.056 82.3381C85.056 73.9274 70.272 59.0177 65.472 50.4637C63.888 47.6443 62.544 43.5823 62.16 40.4761C61.92 38.8035 61.632 37.8956 61.248 37.9911C60.96 38.1345 60.288 37.8956 59.76 37.4655C58.944 36.8443 58.896 36.7009 59.52 36.3186C59.904 36.0797 60.48 35.8407 60.768 35.8407C61.344 35.8407 62.88 26.331 62.88 22.8425C62.88 21.5522 62.64 20.4531 62.256 20.2142C61.296 19.5929 60.336 17.3469 60.624 16.2956C60.768 15.7221 60.672 15.292 60.432 15.292C59.664 15.292 60 14.2885 61.2 13.1416C62.544 11.7558 63.888 11.6124 65.52 12.7115C66.432 13.3327 66.624 13.6673 66.24 14.3363C65.904 14.9575 65.952 15.292 66.384 15.4354C66.816 15.6265 66.816 15.8177 66.288 16.1522C65.952 16.3912 65.808 16.869 65.952 17.1558C66.576 18.1115 64.032 17.7292 63.12 16.7257C62.16 15.6743 62.448 14.1929 63.6 14.623C63.984 14.7664 64.32 14.6708 64.32 14.3841C64.32 13.5717 62.4 13.7628 62.064 14.623C61.68 15.6743 62.736 17.7292 63.792 18.0159C64.32 18.1593 64.848 18.7327 65.04 19.2584C65.28 20.0708 65.424 20.1186 65.616 19.5929C65.76 19.2106 66.384 18.3504 66.96 17.6814C68.736 15.7221 68.736 14.0973 67.008 12.1858C66.192 11.3257 64.896 10.3699 64.176 10.0832C62.208 9.31858 59.28 9.41416 58.56 10.2743C57.888 11.0867 58.224 12.4248 59.136 12.377C59.616 12.377 59.616 12.2814 59.184 12.0903C58.848 11.9947 58.56 11.5646 58.56 11.1823C58.56 10.7044 59.232 10.5133 61.152 10.5133C62.592 10.5133 63.936 10.7044 64.08 10.9911C64.224 11.2779 63.888 11.469 63.216 11.469C62.592 11.469 61.632 11.9469 61.104 12.5204C59.76 14.0496 58.56 16.6779 59.088 17.0124C59.856 17.4425 61.296 21.1699 61.632 23.4159L61.968 25.5664L60.864 23.4637C59.376 20.5965 57.696 19.4018 55.728 19.8319C52.752 20.4531 51.888 24.2283 54.48 25.423C56.64 26.3788 58.992 25.0407 58.272 23.177C57.888 22.2212 56.16 22.269 56.16 23.2248C56.16 23.7027 56.448 23.8938 56.88 23.7027C57.312 23.5593 57.6 23.7504 57.6 24.2283C57.6 24.8018 57.264 24.8973 56.064 24.6584C54.096 24.2761 53.136 23.1292 53.808 21.9345C54.432 20.7398 56.304 19.7363 56.544 20.5009C56.64 20.7876 57.168 21.0266 57.648 21.0266C58.176 21.0266 58.512 21.2177 58.32 21.4566C58.176 21.7434 58.416 22.1257 58.848 22.3646C59.28 22.6035 59.664 23.4159 59.712 24.1805C59.76 24.9451 60.192 26.1398 60.672 26.8566C61.296 27.7646 61.488 28.7204 61.296 29.9628C60.912 32.8779 60.528 34.1204 59.856 34.646C59.472 34.885 59.184 35.315 59.136 35.6018C59.088 36.4142 56.496 36.892 55.152 36.3664C53.664 35.8407 52.944 33.4513 54.048 32.8301C54.432 32.5912 54.624 32.2566 54.48 32.0655C54.384 31.8266 54.96 31.5398 55.776 31.3487C57.36 31.0142 58.08 31.5398 58.08 33.069C58.08 34.2637 57.12 34.5982 56.448 33.6425C55.968 33.0212 55.728 32.9734 55.44 33.4035C54.96 34.2637 55.872 34.9805 57.168 34.7894C58.032 34.6938 58.368 34.3115 58.464 33.308C58.56 32.5434 58.368 31.6832 58.08 31.3009C57.744 30.8708 57.696 30.5841 58.08 30.3451C59.232 29.6283 58.416 29.2938 56.544 29.7239C52.56 30.5841 51.12 33.5947 53.52 35.8407L54.672 36.9398L53.76 38.1345C52.512 39.6637 52.512 42.3398 53.712 43.1044C54.576 43.6301 54.576 43.7257 53.856 44.6814L53.04 45.7327L49.968 43.3912C44.64 39.3292 37.824 36.3664 31.632 35.4584C29.904 35.1717 24.096 35.0761 18.672 35.2195C7.53598 35.554 6.38398 35.315 3.69598 32.6389C1.67998 30.6796 1.10398 29.2938 1.91998 28.4814C2.30398 28.0991 2.63998 28.1947 3.16798 28.9115C3.59998 29.4372 4.12798 29.8195 4.41598 29.7239C4.70398 29.6283 4.79998 29.915 4.65598 30.2973C4.31998 31.2053 6.47998 33.1646 7.39198 32.8301C7.82398 32.6389 8.15998 32.1133 8.15998 31.5876C8.15998 31.062 8.35198 30.4885 8.63998 30.3451C10.08 29.485 7.53598 26.2832 5.47198 26.2832C4.17598 26.2832 4.17598 26.331 5.08798 27C5.56798 27.3823 5.75998 27.7168 5.42398 27.7168C5.13598 27.7168 4.51198 27.3345 4.07998 26.9044C3.02398 25.9009 1.96798 26.4743 0.863979 28.7204C0.143978 30.1062 0.0959784 30.6319 0.575978 32.2089C1.24798 34.3115 2.35198 35.1717 4.99198 35.554C8.20798 36.0797 9.11998 36.4142 9.11998 37.0832C9.11998 37.8 9.69598 37.9911 10.272 37.4177C10.8 36.892 12.384 36.7487 12.72 37.2266C12.864 37.4655 12.336 38.1345 11.568 38.6602C10.368 39.5204 10.128 39.5681 9.59998 38.9469C8.87998 38.0867 8.11198 38.469 8.49598 39.4248C8.63998 39.8071 9.21598 40.1416 9.83998 40.1416C11.376 40.1416 11.28 42.2442 9.74398 42.4354C9.11998 42.531 8.63998 42.9133 8.63998 43.2478C8.63998 43.6301 8.39998 44.0602 8.06398 44.2513C7.67998 44.4903 7.63198 44.3469 7.82398 43.7735C8.01598 43.2956 7.96798 43.0566 7.67998 43.2478C7.39198 43.3912 7.19998 43.869 7.19998 44.2991C7.19998 44.7292 6.67198 45.7805 5.99998 46.6407C5.32798 47.5009 4.79998 48.3133 4.79998 48.5044C4.79998 48.6478 4.36798 49.3646 3.79198 50.1292C3.26398 50.846 2.78398 51.754 2.68798 52.1363C2.63998 52.5186 2.35198 53.2832 2.01598 53.8566C1.24798 55.1947 1.29598 55.4814 2.11198 55.1469C2.49598 55.0035 3.02398 54.2867 3.31198 53.6177L3.74398 52.3274L3.79198 53.7611C3.83998 54.5735 4.27198 56.0071 4.75198 57.0106C5.80798 59.0177 5.71198 59.2089 4.36798 57.7752L3.40798 56.7717L3.69598 57.7752C3.83998 58.3487 4.12798 58.9221 4.36798 59.0655C4.60798 59.2089 4.79998 59.6389 4.79998 60.069C4.79998 60.4991 5.13598 61.2637 5.61598 61.7416C6.28798 62.5062 6.28798 62.6018 5.66398 62.6018C4.84798 62.6018 2.87998 58.8743 2.87998 57.3451C2.87998 56.7239 2.68798 56.4372 2.35198 56.6761C1.96798 56.8673 1.91998 57.8708 2.11198 59.5912C2.30398 61.3115 2.25598 62.0761 1.91998 61.885C1.67998 61.7416 1.43998 60.8336 1.43998 59.9257C1.43998 59.0177 1.19998 58.3009 0.911978 58.3009C0.143978 58.3009 0.575978 66.377 1.39198 66.8549C1.67998 67.046 1.82398 67.5717 1.63198 68.0018C1.19998 69.1487 4.36798 74.4053 7.05598 77.0336C14.784 84.4885 25.536 85.6832 32.352 79.8053C36.336 76.3646 40.272 75.1699 41.424 76.9858C41.856 77.6549 41.472 78.2283 39.552 80.0443L37.2 82.2903L38.352 83.1982C38.976 83.6761 39.84 84.1062 40.272 84.1062C40.944 84.1062 40.944 84.0106 40.32 83.6283C39.36 83.0071 40.128 83.0071 41.328 83.6283C41.952 84.0106 42.528 83.9628 43.2 83.6283C44.304 83.0549 44.496 80.331 43.632 77.2726C43.2 75.6478 42.816 75.2655 40.272 74.1664C37.824 73.0673 37.44 72.7327 37.776 71.9204C37.968 71.3947 38.16 68.9097 38.16 66.4248C38.16 62.315 38.016 61.646 36.768 59.4C35.376 56.915 33.6 54.8602 33.6 55.7681C33.6 56.0071 34.032 56.6283 34.56 57.1062C35.904 58.3487 37.44 62.7451 37.44 65.469C37.44 67.5239 35.808 73.115 35.232 73.115C35.136 73.115 34.656 72.8761 34.176 72.5894C33.456 72.1593 33.024 72.2071 32.016 72.8761C31.296 73.3062 30.72 74.023 30.72 74.3575C30.72 75.3611 30.24 75.1699 29.184 73.8319C28.176 72.5416 26.88 72.2071 26.88 73.2584C26.88 73.5929 26.448 74.6442 25.92 75.6478C25.392 76.6035 24.96 77.7504 24.96 78.1327C24.96 79.0407 21.696 81.2389 20.304 81.2389C19.584 81.2389 19.2 81.5257 19.2 82.0513C19.2 82.7204 19.104 82.7204 18.384 82.0991C17.904 81.7168 16.272 81.0478 14.784 80.5699C11.904 79.7097 10.992 78.9929 12 78.3717C12.336 78.1327 12.48 77.6549 12.288 77.177C12.144 76.6991 12.24 76.0779 12.528 75.6956C13.104 74.9788 12.48 73.5451 11.136 72.5416C10.704 72.2071 10.08 71.4903 9.79198 70.9646C9.45598 70.2956 8.59198 69.9133 7.15198 69.7699C5.37598 69.5788 4.84798 69.1965 3.50398 67.4761C1.67998 65.0867 1.43998 63.5575 2.83198 63.5575C3.35998 63.5575 3.93598 63.7965 4.07998 64.0354C4.22398 64.3221 5.23198 64.5133 6.33598 64.5133C8.15998 64.5133 8.25598 64.4655 7.96798 63.3186C7.77598 62.6496 7.91998 61.7416 8.25598 61.2159C8.73598 60.4513 8.59198 60.069 7.05598 58.6354C5.42398 57.1062 5.27998 56.7717 5.27998 54.2389C5.27998 52.0407 5.56798 50.9894 6.76798 48.9345C8.20798 46.4496 11.664 42.531 12.432 42.531C12.624 42.531 12.72 43.9646 12.624 45.7327C12.48 48.8389 12.48 48.9345 13.152 47.5487C14.496 44.6336 18.336 41.7186 22.656 40.3327C24.192 39.8071 25.44 39.2336 25.44 39.0425C25.44 38.8513 25.152 38.708 24.864 38.7558C23.616 38.8991 22.992 38.708 23.28 38.2301C23.712 37.5133 31.056 37.6088 31.344 38.3257C31.536 38.8035 31.728 38.7558 32.112 38.2301C32.4 37.8478 32.64 37.7522 32.64 38.0389C32.64 38.3735 33.072 38.708 33.648 38.8513C34.416 39.0425 34.512 38.9947 34.032 38.4212C32.64 36.7487 39.024 38.2779 44.304 40.9062C47.376 42.4354 52.8 46.115 52.8 46.6407C52.8 46.9274 52.224 46.6407 50.16 45.2549C49.392 44.7292 48.864 44.4425 49.056 44.6814C49.248 44.8726 49.152 45.3982 48.816 45.7805C48.336 46.4018 48.384 46.4496 48.864 46.1628C49.296 45.9239 50.016 46.2584 50.928 47.1186C51.696 47.8354 52.464 48.2655 52.656 48.1221C52.992 47.7398 56.16 50.5593 56.16 51.2283C56.16 51.9929 57.792 53.4266 58.368 53.1876C58.752 53.0443 59.04 53.1876 59.04 53.5221C59.04 53.8089 58.848 53.9522 58.608 53.8089C57.792 53.2832 58.512 56.9628 59.328 57.5841C60.144 58.1575 60.096 58.2053 59.136 58.8265C57.744 59.6867 57.792 60.9292 59.28 62.3628C60.576 63.7009 61.536 63.9398 61.152 62.8407C60.96 62.4584 60.576 62.1239 60.192 62.1239C59.616 62.1239 58.56 60.7381 58.56 60.0212C58.56 59.3044 59.424 59.8301 59.904 60.7858C60.384 61.7894 60.432 61.7416 60.144 60.4513C59.856 59.1611 59.904 59.0655 60.624 59.6867C61.104 60.0212 61.44 60.6903 61.44 61.1204C61.44 61.5982 61.776 62.3628 62.16 62.8885C62.832 63.7487 62.832 63.7009 62.88 62.2195C62.88 61.4071 63.12 60.6903 63.36 60.6903C63.648 60.6903 63.84 61.3115 63.84 62.0761C63.84 63.892 65.664 64.5133 66.672 63.0796C67.632 61.646 68.208 61.9327 67.392 63.4142C66.336 65.469 66.576 66.5204 68.592 68.7186C70.128 70.3434 70.752 70.7257 72.144 70.7257C73.104 70.7257 74.4 70.5345 75.12 70.2478C75.936 69.9611 76.272 69.9611 76.08 70.2478C75.936 70.4867 75.12 70.869 74.256 71.108C73.104 71.3947 72.72 71.777 72.72 72.6372C72.72 73.3062 73.104 73.8796 73.776 74.1186C74.64 74.4053 75.024 74.1664 76.08 72.5416C76.8 71.4903 77.472 70.7735 77.616 70.9168C77.76 71.0124 77.424 71.777 76.848 72.5416C75.312 74.692 75.504 76.9381 77.376 78.5628C80.016 80.8566 80.784 80.9044 85.152 79.0885C85.824 78.8018 85.968 78.8496 85.728 79.2319C85.536 79.5664 84.624 80.1398 83.712 80.5221C82.32 81.0956 82.128 81.3345 82.464 82.2425C83.184 84.0584 84.864 83.7717 85.968 81.5735C86.496 80.5699 87.072 79.8053 87.168 79.9487C87.312 80.092 87.072 80.8566 86.688 81.669C85.632 83.6283 85.728 85.8266 86.88 86.9735C87.408 87.4991 88.08 87.9292 88.32 87.9292C88.608 87.9292 88.704 88.4071 88.56 89.0283C88.128 90.6053 89.952 92.708 91.632 92.708C93.888 92.708 95.376 91.131 95.808 88.3115C96 86.9257 96.24 86.2089 96.336 86.7345C96.432 87.2602 96.672 88.0248 96.816 88.4071C97.392 89.8885 97.488 92.4212 97.008 93.7593C96.72 94.5239 96.72 95.0018 96.96 94.8584C97.2 94.715 97.584 94.954 97.824 95.3363C98.064 95.7664 98.832 96.531 99.6 97.0089C100.848 97.8212 100.896 97.9646 100.128 98.2513C99.552 98.4903 99.024 98.2991 98.64 97.8212C98.304 97.3434 97.68 97.0089 97.248 97.0089C96.72 97.0089 97.2 97.6779 98.64 98.9204C100.416 100.45 101.232 100.832 102.768 100.832C103.824 100.832 105.12 100.593 105.648 100.354C106.704 99.7327 106.896 100.45 105.84 101.31C105.456 101.644 104.688 102.6 104.112 103.508L103.152 105.133L104.496 106.327C105.888 107.57 107.952 107.857 108.816 106.996C109.2 106.614 109.44 106.614 109.632 106.996C110.208 107.904 112.512 107.522 113.904 106.327C114.624 105.706 115.2 105.037 115.2 104.846C115.2 104.655 114.432 103.604 113.52 102.457C111.6 100.163 111.408 99.6372 112.752 100.354C114 100.975 116.64 100.927 117.888 100.211C119.184 99.4938 121.92 97.1522 121.92 96.8177C121.92 96.1009 120.48 96.6266 119.808 97.5345C119.424 98.108 118.848 98.4425 118.464 98.2991C118.128 98.2035 117.36 98.5381 116.784 99.0637C116.16 99.5894 115.68 99.7805 115.68 99.4938C115.68 99.1593 115.056 98.9204 114.288 98.9204C112.464 98.9204 109.92 96.5788 109.92 94.8584C109.92 92.9469 111.072 91.131 113.28 89.6018C114.912 88.4549 115.344 88.3593 115.728 88.9327C116.064 89.4584 116.16 89.3628 116.16 88.5504C116.16 87.0212 116.64 86.0177 117.408 86.0177C117.792 86.0177 118.224 85.731 118.368 85.3487C118.608 84.7274 122.88 81.4301 122.88 81.8602C122.88 82.0035 122.112 83.7239 121.152 85.731C120 88.1681 119.568 89.554 119.856 89.9841C120.288 90.5097 120.288 91.9912 119.856 94.5239C119.76 95.1451 119.04 96.0531 118.272 96.5788C117.504 97.0566 117.12 97.4867 117.456 97.4867C118.368 97.4867 121.968 94.2372 121.392 93.9027C120.816 93.5204 121.152 87.4513 121.824 86.2089C122.16 85.6354 122.352 86.0655 122.496 87.8814C122.784 90.9876 123.888 92.2301 126.288 92.2301C128.448 92.2301 130.224 90.4142 129.792 88.646C129.6 87.8336 129.744 87.4513 130.464 87.2602C132.048 86.7345 132.576 84.4407 131.712 81.8602C130.752 79.1363 131.088 78.7062 132.24 81.2389C132.912 82.6726 133.392 83.1504 134.256 83.1504C134.832 83.1504 135.36 82.9593 135.36 82.7204C135.36 82.4814 135.504 81.9558 135.648 81.5257C135.84 81.0478 135.312 80.5221 134.064 79.8053C133.056 79.2319 132.672 78.9451 133.2 79.1363C133.728 79.3274 135.264 79.5664 136.608 79.6619C138.672 79.8531 139.2 79.7575 139.728 78.9929C140.112 78.4673 140.784 77.9416 141.216 77.7504C142.656 77.2248 142.848 75.0743 141.696 72.9239C140.352 70.5345 140.736 70.0089 142.128 72.3504C143.232 74.2619 143.472 74.3575 144.576 73.4496C146.16 72.1593 145.968 71.2513 144 70.7257C142.944 70.4389 141.984 69.9611 141.792 69.6743C141.552 69.292 141.744 69.2443 142.368 69.4832C142.848 69.7221 144.192 70.0089 145.296 70.1044C147.216 70.3434 147.456 70.2478 149.328 68.2885C151.056 66.377 151.248 65.9947 150.96 64.3221C150.72 62.7929 150.816 62.554 151.296 62.9841C152.544 63.9876 153.792 63.3186 154.272 61.5027C154.512 60.4991 154.896 59.7345 155.136 59.7345C155.664 59.7345 155.616 60.3558 155.04 61.9327C154.752 62.6496 154.656 63.3186 154.8 63.4619C155.136 63.7965 157.44 61.646 157.44 60.977C157.44 60.7381 157.152 60.9292 156.768 61.4549C155.856 62.6496 155.232 61.9805 156.096 60.7381C156.48 60.1646 156.912 59.8779 157.056 60.0212C157.2 60.1646 157.488 59.4956 157.632 58.5398C157.824 57.6319 158.112 56.8673 158.304 56.8673C158.784 56.8673 160.368 53.4266 160.08 53.092C159.936 52.9965 159.84 53.1398 159.84 53.4743C159.84 53.8089 159.648 53.9044 159.36 53.7611C158.784 53.4266 158.688 52.0407 159.264 52.1841C160.128 52.3752 161.28 51.4195 161.28 50.4637C161.28 49.2212 161.904 48.2177 162.768 48.1221C163.824 47.931 166.8 45.7327 166.944 44.9681C167.04 44.4425 166.8 44.4903 165.84 45.1115C163.584 46.5929 164.064 45.5416 166.416 43.8212C169.44 41.6708 173.808 39.5204 177.216 38.5168C180.768 37.5133 181.968 37.5133 181.584 38.5168C181.296 39.2336 181.392 39.2336 182.544 38.5168C183.408 37.8956 183.84 37.8478 184.08 38.2779C184.368 38.6602 184.56 38.6602 184.848 38.1823C185.136 37.7044 186.24 37.5611 188.688 37.6088C192.432 37.7044 192.912 37.8956 192.048 38.8513C191.616 39.377 192.144 39.7593 194.736 40.9062C198.432 42.4354 202.56 46.0673 202.56 47.7398C202.56 48.4089 202.752 48.6956 203.088 48.4566C203.472 48.2655 203.52 47.1186 203.328 44.9681L202.992 41.8142L205.2 43.9646C208.272 46.9274 210.72 51.3717 210.72 53.9522C210.72 56.3416 210.096 57.6796 208.368 59.1133C207.264 60.0212 207.216 60.2602 207.744 61.1204C208.08 61.6938 208.224 62.6496 208.032 63.3186C207.744 64.4177 207.888 64.5133 209.424 64.5133C210.384 64.5133 211.248 64.3221 211.392 64.0832C211.536 63.8442 212.208 63.5575 212.88 63.4619C214.416 63.1274 214.464 64.0354 212.928 66.6159C211.632 68.8619 210.336 69.6743 207.84 69.8655C206.496 69.9611 206.112 70.2478 206.016 71.0602C205.92 71.6814 205.536 72.1593 205.2 72.1593C204.816 72.1593 204.144 72.7327 203.664 73.4018C202.992 74.4053 202.992 74.7876 203.472 75.6C203.904 76.269 203.904 76.6991 203.52 77.177C203.136 77.6549 203.184 77.9416 203.808 78.2761C205.056 78.9929 204.192 79.7097 201.216 80.5221C199.728 80.9522 198.096 81.4779 197.664 81.7646C197.088 82.0513 196.8 82.0513 196.8 81.7168C196.8 81.4779 196.272 81.2389 195.648 81.2389C194.4 81.2389 191.568 79.4708 191.04 78.3717C190.128 76.4124 189.168 74.2142 188.928 73.4496C188.544 72.3027 187.104 72.5894 186.48 73.9752C185.904 75.2655 185.424 75.3133 185.088 74.1664C184.608 72.7805 182.544 71.8248 181.44 72.5416C180.624 73.0673 180.384 72.8761 179.472 71.0602C177.456 66.9504 178.464 59.7823 181.536 56.5327C182.112 55.9115 182.4 55.4336 182.208 55.4336C181.2 55.4336 178.8 59.2089 177.888 62.3628C177.168 64.6089 177.312 70.2478 178.08 71.6336C178.464 72.3504 178.32 72.685 177.36 73.3062C176.736 73.7363 175.872 74.0708 175.536 74.0708C172.944 74.0708 170.544 79.7097 171.936 82.5292C172.416 83.5327 172.944 83.8673 174.24 83.9628C175.152 84.0106 176.256 83.9628 176.64 83.8195C177.216 83.5805 177.216 83.4372 176.448 82.8637C175.92 82.5292 175.68 82.0513 175.872 81.8602C176.064 81.669 176.4 81.8124 176.64 82.1469C177.072 82.9115 178.56 82.5292 178.56 81.669C178.56 81.3345 178.464 81.1912 178.272 81.3345C178.128 81.4779 177.024 80.6655 175.824 79.5186C174 77.7504 173.76 77.3204 174.24 76.6991C174.576 76.3168 175.536 75.9823 176.352 75.9823C177.744 75.9823 178.704 76.508 185.952 81.3345C189.312 83.5805 196.512 84.2973 199.056 82.6726C199.824 82.1947 199.824 82.1469 199.104 82.3858C198.624 82.5292 198.24 82.3858 198.24 82.0991C198.24 81.8124 198.768 81.7168 199.728 81.908C200.88 82.1469 201.84 81.8602 203.712 80.7611C206.736 79.0885 211.68 74.4531 211.68 73.4018C211.68 72.9717 211.872 72.6372 212.064 72.6372C212.544 72.6372 214.704 68.2885 214.368 67.954C214.224 67.8584 213.888 68.2407 213.6 68.9097C213.072 70.0566 211.2 71.5858 211.2 70.869C211.2 70.6301 212.064 69.5788 213.12 68.4319C214.8 66.6637 215.04 66.0425 215.28 63.4142C215.424 61.7894 215.376 59.7823 215.088 59.0177L214.656 57.5841L214.608 59.0655C214.56 59.8301 214.272 60.9292 213.888 61.4549C213.264 62.2673 213.216 62.0283 213.456 59.3044C213.744 56.0549 213.024 55.4336 212.496 58.492C212.16 60.5469 210.864 62.6018 209.856 62.6018C209.28 62.6018 209.328 62.3628 210.144 61.5027C210.72 60.8814 211.2 60.0212 211.2 59.5912C211.2 59.1611 211.44 58.6832 211.68 58.5398C211.968 58.3965 212.16 57.8708 212.16 57.4407C212.112 56.6761 212.112 56.6761 211.632 57.4407C210.672 59.1611 210.336 58.2531 211.248 56.3416C211.824 55.1947 212.064 54.0478 211.872 53.4266C211.68 52.7575 211.776 52.5664 212.112 52.7575C212.4 52.9487 212.64 53.4743 212.64 53.9522C212.64 54.4301 213.072 54.9558 213.552 55.0991C214.272 55.2425 214.416 55.1469 214.224 54.5735C213.888 53.7611 212.016 50.0814 211.008 48.3611C209.76 46.2106 206.64 42.5788 205.824 42.3876C204.528 42.0053 204.72 40.2372 206.016 40.046C206.64 39.9504 207.168 39.5204 207.264 38.9469C207.408 38.1823 207.312 38.0867 206.832 38.5646C206.496 38.8991 205.872 39.1858 205.44 39.1858C204.672 39.1858 203.04 37.7522 203.04 37.0832C203.04 36.7009 204.96 36.9398 205.824 37.4177C206.16 37.6566 206.4 37.6088 206.4 37.2743C206.4 36.7009 207.984 36.0319 210.336 35.6496C213.12 35.2195 214.368 34.4549 214.944 32.7823C215.712 30.7752 215.664 29.8673 214.8 28.2425C213.936 26.5221 212.784 26.0443 211.872 27C211.44 27.3823 210.912 27.7168 210.672 27.7168C210.048 27.7168 210.144 26.8566 210.864 26.6177C211.152 26.4743 210.96 26.331 210.384 26.331C209.808 26.2832 208.752 26.8089 208.032 27.4301C206.736 28.4814 206.736 28.6248 207.312 30.5363C208.032 33.069 208.944 33.4035 210.576 31.8266C211.248 31.1575 211.584 30.5841 211.248 30.5841C210.96 30.5841 210.72 30.3451 210.72 30.0584C210.72 29.8195 210.912 29.6761 211.152 29.8673C211.44 30.0106 211.872 29.6761 212.16 29.1504C212.88 27.8124 214.08 27.908 214.08 29.3894C214.08 31.062 211.536 33.7381 208.992 34.6938C207.072 35.4106 205.584 35.4584 196.896 35.2195C181.824 34.7894 176.112 36.1274 167.184 42.292C164.688 44.0602 164.112 44.2513 163.632 43.6779C163.2 43.1522 163.248 42.8177 163.872 42.1487C164.928 40.954 164.832 39.0903 163.68 37.6088L162.72 36.3664L163.92 35.1717C164.592 34.5027 165.12 33.4035 165.12 32.7345C165.12 30.9664 163.104 29.1504 161.136 29.1504C160.272 29.1504 159.264 28.8637 158.928 28.5292C158.4 28.0513 158.4 28.1469 158.832 29.0071C159.12 29.5805 159.216 30.6796 159.072 31.492C158.736 33.1646 159.456 34.4071 160.8 34.4071C161.664 34.4071 162.432 33.308 161.904 32.7823C161.376 32.2566 160.8 32.4956 160.8 33.2602C160.8 34.4071 159.648 33.7858 159.456 32.5434C159.216 31.1097 160.224 29.915 161.088 30.6319C161.424 30.9186 161.952 31.0142 162.24 30.823C162.48 30.6796 162.72 30.823 162.72 31.2053C162.72 31.5876 163.008 32.0177 163.392 32.1611C164.112 32.4478 163.92 34.1204 163.056 35.2195C162.288 36.223 157.536 35.8885 158.16 34.8372C158.304 34.646 158.016 34.2159 157.488 33.9292C156.96 33.6903 156.528 33.069 156.48 32.5912C156.48 32.1611 156.336 30.7752 156.192 29.5327C155.952 27.7168 156.096 27 156.912 25.8531C157.584 24.9451 157.728 24.3717 157.392 24.2761C156.72 24.0372 157.68 21.9823 158.4 21.9823C158.688 21.9823 158.88 21.6956 158.88 21.3611C158.88 21.0743 159.456 20.5009 160.176 20.2142C161.232 19.6885 161.664 19.7363 162.576 20.3097C163.2 20.7398 163.68 21.4566 163.68 21.9345C163.68 22.9858 161.568 24.515 160.464 24.2761C159.264 24.0372 159.12 22.9381 160.272 22.9381C161.424 22.9381 161.616 22.2212 160.608 21.8389C159.792 21.5044 158.88 22.3646 158.88 23.5115C158.88 24.4195 160.224 25.3274 161.664 25.3274C164.016 25.3274 165.12 21.2655 163.104 19.8796C160.704 18.2071 158.208 19.2584 156.48 22.6991L155.568 24.6106L155.664 22.6035C155.712 21.4566 155.904 20.5487 156.144 20.5487C156.336 20.5487 156.48 20.1664 156.48 19.6885C156.48 19.2584 156.96 18.1115 157.488 17.2035C158.16 16.1522 158.304 15.4832 157.968 15.3876C157.68 15.292 157.44 14.8142 157.44 14.2885C157.44 13.046 155.328 10.9911 154.08 10.9911C153.552 10.9911 153.12 10.7522 153.12 10.5133C153.12 10.2265 153.408 10.0354 153.792 10.0354C154.128 10.0354 155.04 9.93983 155.808 9.79646C156.576 9.6531 157.488 9.74867 157.872 9.98761C158.496 10.3699 158.496 10.5611 157.872 11.2779C157.296 11.9947 157.296 12.0903 157.92 11.8513C158.304 11.7558 158.64 11.0867 158.64 10.4655C158.64 9.41416 158.448 9.31858 156.24 9.17522C154.8 9.12743 153.264 9.36637 152.352 9.84425ZM30.912 36.2708C31.056 36.5097 29.424 36.7009 27.264 36.7487C23.184 36.7965 20.4 37.3699 18.096 38.5646C16.512 39.377 15.6 38.9469 17.04 38.0867C20.016 36.3186 30.144 35.0283 30.912 36.2708ZM195.072 36.6053C196.704 37.0354 198.432 37.8 198.96 38.2779C200.064 39.377 199.152 39.5204 197.616 38.5168C195.84 37.3699 192.048 36.7009 186.96 36.6531C183.936 36.6531 182.688 36.5097 183.6 36.3186C186.24 35.6496 192.144 35.8407 195.072 36.6053ZM16.8 37.2266C16.752 37.8 13.248 40.1416 12.384 40.1416C11.088 40.1416 11.328 39.2336 12.96 38.3257C13.728 37.8956 14.4 37.2743 14.4 36.9876C14.4 36.6531 14.88 36.5575 15.6 36.7009C16.272 36.7965 16.8 37.0354 16.8 37.2266ZM33.264 36.6531C32.928 36.7487 32.352 36.7487 32.064 36.6531C31.728 36.5097 31.968 36.4142 32.64 36.4142C33.312 36.4142 33.552 36.5097 33.264 36.6531ZM202.8 38.1345C204.048 38.708 204.48 40.1416 203.424 40.1416C202.704 40.1416 199.2 37.7522 199.2 37.2266C199.2 36.6531 201.36 36.5097 201.504 37.0832C201.6 37.3699 202.176 37.8478 202.8 38.1345ZM162.624 37.3699C164.064 38.8035 162.72 41.5752 160.512 41.7186C159.36 41.8142 159.072 41.623 158.976 40.6673C158.736 39.1381 159.744 38.1823 160.368 39.3292C160.944 40.285 161.856 39.9504 161.424 38.9469C161.04 37.8956 158.976 38.0867 158.4 39.1858C158.016 39.8549 158.016 40.4283 158.448 41.1451C158.832 41.9097 158.832 42.4832 158.448 43.3434C157.968 44.3947 158.016 44.4425 158.832 43.9646C160.176 43.2956 161.904 43.3912 163.008 44.1558C163.92 44.8726 163.92 44.8726 162.912 45.8761C162.288 46.5451 161.088 46.9274 159.312 47.1186C153.984 47.6443 153.744 47.8354 155.76 50.4637L157.008 52.0407L155.52 54.6212C153.984 57.3929 152.304 58.5398 150.096 58.3487C149.376 58.2531 148.416 58.492 148.032 58.8265C146.4 60.1646 146.976 58.6832 149.28 55.6726C150.624 53.9044 152.352 51.2283 153.12 49.6991C154.656 46.6885 156.48 40.715 156.144 39.8071C156.048 39.5204 156.384 38.9947 156.96 38.708C157.488 38.4212 157.824 37.9911 157.68 37.7522C157.104 36.7965 161.664 36.4142 162.624 37.3699ZM59.52 37.7522C59.904 37.9911 60.048 38.2301 59.808 38.2301C59.568 38.2301 59.76 38.6602 60.24 39.1858C60.768 39.7593 61.2 40.4283 61.248 40.7628C61.776 43.6301 62.688 46.4973 64.08 49.3646C67.152 55.8637 78.912 68.9575 88.368 76.5558C93.312 80.4743 94.368 82.0991 93.936 84.823C93.792 85.731 93.84 86.4956 94.032 86.4956C94.656 86.4956 95.04 88.3593 94.464 88.6938C94.224 88.8372 94.128 89.2195 94.224 89.554C94.368 89.8885 93.936 90.6531 93.264 91.2743C92.304 92.1823 91.872 92.3257 90.816 91.9434C89.088 91.3699 88.848 89.6018 90.288 88.3593C91.536 87.2602 92.64 87.1646 92.64 88.1681C92.64 88.5504 92.496 88.8372 92.256 88.7416C92.064 88.6938 91.872 88.8372 91.776 89.1239C91.488 89.9841 92.976 89.8885 93.312 89.0283C93.888 87.5947 91.968 86.4956 89.472 86.7345C87.504 86.9257 87.36 86.8779 87.024 85.6354C86.88 84.9186 87.024 83.1504 87.456 81.6212C88.416 77.9416 87.84 77.3681 84.576 78.515C80.688 79.9009 77.28 79.423 78.72 77.6549C79.392 76.8425 78.672 76.6991 77.904 77.4637C77.616 77.7504 77.136 77.846 76.848 77.7027C75.984 77.177 76.224 75.4566 77.52 72.685C79.056 69.4354 78.576 68.623 75.6 69.292C72.72 69.9611 70.272 69.8655 69.6 69.0531C69.072 68.4319 69.12 68.1929 69.888 67.5717C70.752 66.9027 70.704 66.8549 69.264 67.1416C67.68 67.4761 67.44 67.2372 67.632 65.469C67.728 64.4177 69.696 60.2124 70.128 60.2124C70.752 60.2124 70.944 62.1717 70.512 63.7009C70.128 65.0389 70.224 65.3735 71.28 66.2814C72.192 67.0938 72.768 67.2372 73.584 66.9504C74.784 66.4726 75.072 64.4655 73.92 64.131C73.344 63.9398 73.296 64.0354 73.824 64.5611C74.112 64.8956 74.4 65.3735 74.4 65.6124C74.4 65.8513 73.968 65.5646 73.44 64.9434C72.48 63.7965 72.48 63.7965 71.712 64.7522C70.944 65.6602 70.944 65.6602 71.28 64.2743C72.192 60.308 70.848 58.5876 67.152 59.0655C64.416 59.4 61.92 57.9664 60.672 55.2903L59.856 53.5221L61.44 51.515C63.648 48.8389 63.12 48.1221 58.656 47.7398C55.296 47.5009 53.76 46.8319 53.76 45.5894C53.76 44.2991 57.312 43.3912 58.368 44.4425C58.656 44.7292 58.8 43.9168 58.8 42.1965C58.8 40.2372 58.608 39.377 57.984 39.0425C57.12 38.469 55.488 39.4248 55.968 40.1894C56.352 40.8584 57.12 40.6673 57.12 39.9027C57.12 39.4726 57.408 39.3292 57.84 39.4726C58.752 39.8549 58.8 41.7664 57.888 42.4832C57.072 43.1522 55.68 42.6743 54.72 41.3841C53.952 40.3327 54 38.8513 54.816 37.8478C55.392 37.1788 58.512 37.0832 59.52 37.7522ZM16.8 40.4283C16.8 40.5239 16.224 40.6195 15.504 40.6195C14.496 40.6195 14.352 40.4761 14.832 40.1894C15.456 39.8071 16.8 39.9504 16.8 40.4283ZM200.88 40.1416C201.024 40.4283 200.688 40.6195 200.064 40.6195C199.2 40.6195 199.104 40.5239 199.68 40.1416C200.592 39.5681 200.544 39.5681 200.88 40.1416ZM158.928 48.6478C158.304 48.7434 157.632 48.6478 157.392 48.4089C157.104 48.1221 157.536 48.0743 158.496 48.2177C159.84 48.4089 159.888 48.5044 158.928 48.6478ZM59.76 49.2212C58.416 49.7947 56.736 49.7947 56.4 49.2212C56.208 48.9345 56.976 48.7434 58.416 48.7912C60.144 48.7912 60.48 48.9345 59.76 49.2212ZM157.68 51.0372C157.392 51.3717 156 50.177 156 49.5558C156 49.3168 156.432 49.4602 156.96 49.9381C157.488 50.4159 157.824 50.8938 157.68 51.0372ZM60.528 51.5628C59.088 52.9965 58.656 52.8053 60 51.3717C60.624 50.7027 61.2 50.2726 61.344 50.3681C61.44 50.4637 61.056 51.0372 60.528 51.5628ZM157.296 53.7133C157.104 54.1912 157.248 54.3345 157.728 54.1434C158.208 53.9522 158.4 54.2389 158.4 55.1947C158.4 56.1027 158.208 56.4372 157.584 56.2938C156.528 56.1027 156.24 53.0443 157.296 53.0443C157.44 53.0443 157.44 53.3788 157.296 53.7133ZM59.712 56.1504C59.856 56.5327 59.76 56.8673 59.52 56.8673C59.232 56.8673 59.04 56.5327 59.04 56.1504C59.04 55.7681 59.136 55.4336 59.232 55.4336C59.328 55.4336 59.52 55.7681 59.712 56.1504ZM157.344 57.4407C157.2 57.7752 156.816 58.062 156.48 58.062C156.144 58.062 155.76 57.7752 155.664 57.4407C155.52 57.1062 155.856 56.8673 156.48 56.8673C157.104 56.8673 157.44 57.1062 157.344 57.4407ZM67.008 60.1646C66.624 60.7381 64.8 61.1681 64.8 60.6903C64.8 60.4513 65.184 60.1646 65.664 60.069C67.056 59.6867 67.248 59.7345 67.008 60.1646ZM147.312 60.7858C147.552 61.4071 148.32 62.3628 149.04 62.9841C149.952 63.7487 150.24 64.4655 150.144 65.3735C150 66.4726 149.808 66.6637 148.56 66.5204C147.168 66.4248 147.168 66.4248 148.08 67.1416C149.04 67.9062 149.04 67.9062 148.128 68.623C147.024 69.3876 144.48 69.4832 142.08 68.8142C140.784 68.4319 140.256 68.4796 139.728 69.0053C139.152 69.5788 139.248 70.0566 140.352 72.2071C141.648 74.8832 141.936 76.6513 141.12 77.177C140.832 77.3681 140.256 77.2248 139.872 76.8903C139.488 76.6035 139.008 76.4602 138.864 76.6513C138.672 76.8425 138.816 77.177 139.2 77.4159C139.776 77.7504 139.776 77.9894 139.344 78.4195C138.576 79.1841 136.032 79.0407 133.2 78.1327C130.224 77.0814 129.648 77.5593 130.464 80.5221C131.232 83.3894 131.184 85.7788 130.368 86.4478C129.984 86.7823 129.552 86.8301 129.408 86.5912C129.12 86.0655 126.24 86.4478 125.424 87.069C124.608 87.7381 124.656 89.2195 125.472 89.5062C126.192 89.7929 126.72 89.4584 126.72 88.7894C126.72 88.5982 126.384 88.4071 126 88.4071C125.088 88.4071 125.04 87.6425 125.952 87.308C126.72 87.0212 129.12 88.8372 129.12 89.6973C129.12 90.7009 127.632 91.7522 126.24 91.7522C124.944 91.7522 124.08 90.7487 124.272 89.5062C124.32 89.2195 124.128 88.8372 123.84 88.646C123.216 88.2637 123.216 86.0177 123.84 86.0177C124.08 86.0177 124.176 85.3965 124.032 84.5841C123.552 82.1947 124.704 80.4266 129.456 76.4124C131.904 74.3097 135.504 71.108 137.376 69.292C139.632 67.1416 141.024 66.1381 141.312 66.4248C142.032 67.1416 144.096 66.9982 145.152 66.1858C146.016 65.5646 146.064 65.2779 145.536 63.892C144.816 61.885 144.816 61.0248 145.536 60.308C146.4 59.4478 146.832 59.5912 147.312 60.7858ZM150 60.7381C150.528 61.5504 149.952 61.7416 149.28 60.9292C148.896 60.4991 148.896 60.2124 149.184 60.2124C149.472 60.2124 149.856 60.4513 150 60.7381ZM143.616 64.3221C142.32 65.1823 142.272 65.8035 143.424 66.0903C144 66.2814 143.952 66.3292 143.136 66.377C142.56 66.377 141.936 66.0903 141.792 65.708C141.408 64.8 143.568 62.4584 144.24 63.1274C144.528 63.4142 144.288 63.8442 143.616 64.3221ZM4.55998 71.108C4.22398 71.4903 1.91998 68.8619 1.91998 68.0973C1.91998 67.8106 2.59198 68.3363 3.40798 69.1965C4.22398 70.0566 4.75198 70.9168 4.55998 71.108ZM7.19998 72.5416C7.19998 72.8761 7.67998 73.354 8.30398 73.5929C9.26398 73.9752 9.26398 74.023 8.39998 74.023C7.00798 74.0708 5.61598 72.8283 5.47198 71.4903C5.37598 70.3912 5.37598 70.3434 6.28798 71.108C6.76798 71.5381 7.19998 72.1593 7.19998 72.5416ZM210.384 71.7292C210.24 72.446 209.664 73.2106 208.992 73.5451C207.504 74.2142 206.352 74.2142 207.504 73.5451C207.936 73.3062 208.32 72.8283 208.32 72.5894C208.32 72.1593 210.336 70.2 210.576 70.3912C210.624 70.4389 210.528 71.0602 210.384 71.7292ZM34.08 73.2584C34.08 73.5929 33.84 74.1186 33.504 74.4531C33.12 74.8354 33.072 75.0266 33.456 75.0266C33.744 75.0266 33.408 75.6478 32.736 76.4602C32.016 77.2248 31.248 77.8938 31.008 77.8938C30.336 77.8938 31.056 74.692 32.016 73.6885C33.024 72.5894 34.08 72.3504 34.08 73.2584ZM183.696 73.6885C184.224 74.3097 184.896 75.7434 185.184 76.8903L185.712 78.9929L183.84 77.177C182.832 76.1735 182.112 75.1221 182.208 74.7876C182.352 74.4531 182.208 74.023 181.968 73.8319C181.392 73.4973 181.68 72.6372 182.352 72.6372C182.544 72.6372 183.168 73.115 183.696 73.6885ZM37.776 73.8796C37.632 74.023 37.2 74.0708 36.864 73.9274C36.48 73.7841 36.624 73.6407 37.152 73.6407C37.68 73.5929 37.968 73.7363 37.776 73.8796ZM179.376 73.8796C179.232 74.023 178.8 74.0708 178.464 73.9274C178.08 73.7841 178.224 73.6407 178.752 73.6407C179.28 73.5929 179.568 73.7363 179.376 73.8796ZM9.02398 76.4124C9.88798 78.0372 9.55198 78.085 7.63198 76.4602C6.04798 75.1221 6.04798 75.0743 7.19998 75.1699C7.87198 75.2177 8.63998 75.7434 9.02398 76.4124ZM207.84 76.6035C206.112 78.1327 205.68 78.085 206.496 76.4124C206.832 75.6478 207.456 75.2655 208.176 75.2655C209.328 75.2655 209.328 75.2655 207.84 76.6035ZM29.328 77.3681C28.992 77.9416 28.512 78.3717 28.224 78.3717C27.984 78.3717 27.84 78.8018 27.984 79.3274C28.128 79.8531 28.032 80.2832 27.792 80.2832C27.12 80.2832 27.264 79.3752 28.224 77.3681C28.656 76.3646 29.232 75.7434 29.424 75.9823C29.664 76.1735 29.616 76.7947 29.328 77.3681ZM187.536 77.177C187.824 77.846 187.92 78.3717 187.728 78.3717C187.152 78.3717 186.24 77.2726 186.24 76.6035C186.24 75.6 186.912 75.8867 187.536 77.177ZM26.88 77.8938C26.88 78.1327 26.64 78.3717 26.352 78.3717C26.112 78.3717 26.016 78.1327 26.16 77.8938C26.304 77.6071 26.544 77.4159 26.688 77.4159C26.784 77.4159 26.88 77.6071 26.88 77.8938ZM189.6 77.8938C189.6 78.1327 189.36 78.3717 189.072 78.3717C188.832 78.3717 188.736 78.1327 188.88 77.8938C189.024 77.6071 189.264 77.4159 189.408 77.4159C189.504 77.4159 189.6 77.6071 189.6 77.8938ZM188.208 79.9487C187.728 80.3788 187.68 80.331 187.968 79.6619C188.112 79.1841 188.4 78.9451 188.544 79.0885C188.688 79.2319 188.544 79.6142 188.208 79.9487ZM26.16 80.7133C26.016 81 25.488 81.2389 25.056 81.2389C24.336 81.1912 24.336 81.1434 25.152 80.5221C26.16 79.7575 26.688 79.9009 26.16 80.7133ZM41.76 80.2832C41.76 80.5221 41.328 80.7611 40.8 80.7611C40.272 80.7611 39.84 80.5221 39.84 80.2832C39.84 79.9965 40.272 79.8053 40.8 79.8053C41.328 79.8053 41.76 79.9965 41.76 80.2832ZM176.16 80.2832C176.16 80.5221 175.728 80.7611 175.2 80.7611C174.672 80.7611 174.24 80.5221 174.24 80.2832C174.24 79.9965 174.672 79.8053 175.2 79.8053C175.728 79.8053 176.16 79.9965 176.16 80.2832ZM190.848 80.5221C191.616 81.0956 191.616 81.1912 190.992 81.2389C190.56 81.2389 189.936 80.9044 189.6 80.5221C188.832 79.6142 189.6 79.6142 190.848 80.5221ZM201.456 81.5257C201.312 81.669 200.88 81.7168 200.544 81.5735C200.16 81.4301 200.304 81.2867 200.832 81.2867C201.36 81.2389 201.648 81.3823 201.456 81.5257ZM17.76 82.1469C17.76 82.3858 17.328 82.4814 16.8 82.3381C16.272 82.1947 15.84 82.0035 15.84 81.908C15.84 81.8124 16.272 81.7168 16.8 81.7168C17.328 81.7168 17.76 81.908 17.76 82.1469ZM40.32 81.9558C40.32 82.0513 39.84 82.4336 39.264 82.7204C38.256 83.246 38.208 83.246 38.832 82.5292C39.456 81.7646 40.32 81.4301 40.32 81.9558ZM97.824 83.6283C98.928 84.4407 99.84 85.3009 99.84 85.5398C99.84 85.8266 100.176 86.0177 100.56 86.0177C101.376 86.0177 102.24 87.4513 102.288 88.9805C102.336 89.7929 102.432 89.8407 102.576 89.2195C102.864 88.1681 102.96 88.1681 105.12 89.6973C108.768 92.3257 109.488 95.4319 106.992 97.6301C106.128 98.3947 104.928 98.9204 104.16 98.9204C103.392 98.9204 102.672 99.2071 102.528 99.4938C102.384 99.9239 102.048 99.8283 101.52 99.1593C100.8 98.2513 100.848 98.2035 102.336 97.9168C104.448 97.5823 104.976 97.2 105.792 95.6708C106.848 93.5681 105.984 91.4655 103.776 90.7965C102.816 90.462 101.712 89.8407 101.376 89.4106C100.8 88.7416 100.752 88.7894 100.848 89.8407C100.944 90.5097 100.704 91.5611 100.368 92.1823C99.312 94.0938 101.376 96.8655 102.528 95.0496C102.72 94.715 102.528 94.6195 101.856 94.8106C100.368 95.2885 99.888 93.377 101.184 92.1345C102.048 91.2266 102.288 91.2266 103.632 91.8C105.216 92.5168 105.456 92.9469 104.544 93.377C104.064 93.6159 104.064 93.7115 104.544 93.9504C105.216 94.285 105.312 95.5752 104.64 95.5752C104.4 95.5752 104.16 95.862 104.16 96.2443C104.16 96.9611 103.152 97.4867 101.76 97.4867C100.704 97.4867 97.824 95.1451 98.832 95.0973C99.36 95.0973 99.36 94.9062 98.736 94.2372C97.92 93.377 97.776 90.9876 98.448 90.0796C98.832 89.554 97.248 85.5876 95.856 83.485C94.752 81.8124 95.376 81.8602 97.824 83.6283ZM111.84 101.31C113.712 103.699 114.048 104.989 112.992 106.136C112.56 106.614 111.792 107.044 111.312 107.044C110.352 107.044 109.248 105.372 109.68 104.655C110.16 103.89 110.88 104.081 110.592 104.894C110.304 105.658 111.6 105.945 112.032 105.228C112.608 104.32 111.456 103.795 109.104 103.89C106.416 104.034 105.792 104.273 106.32 105.085C106.8 105.897 108 105.706 108 104.798C108 104.225 108.144 104.129 108.528 104.512C108.912 104.894 108.912 105.324 108.48 106.089C107.712 107.57 105.504 107.235 104.928 105.515C104.544 104.416 104.784 103.795 106.848 100.688L109.2 97.2L109.872 98.3947C110.256 99.0637 111.12 100.402 111.84 101.31Z" fill="black"/>
<path d="M152.208 54.1434C151.776 54.669 151.824 54.9557 152.4 55.4336C153.312 56.1982 154.656 55.6726 154.464 54.6212C154.272 53.5221 152.976 53.2832 152.208 54.1434Z" fill="black"/>
<path d="M62.736 54.8124C62.256 55.5292 63.216 56.485 64.128 56.2938C65.376 56.0549 65.28 54.7646 63.984 54.5734C63.456 54.4779 62.88 54.6212 62.736 54.8124Z" fill="black"/>
<path d="M80.4 75.0265C80.208 75.3611 80.256 75.7911 80.544 76.0779C81.216 76.7469 82.8 76.3646 82.8 75.5044C82.8 74.6442 80.88 74.2619 80.4 75.0265Z" fill="black"/>
<path d="M89.472 82.9115C89.28 83.3416 89.376 83.915 89.664 84.2018C90.384 84.9186 91.776 84.2496 91.584 83.2938C91.392 82.1947 89.856 81.908 89.472 82.9115Z" fill="black"/>
<path d="M134.592 74.6442C134.112 75.4566 135.84 76.5558 136.608 75.9345C136.944 75.6478 137.088 75.1221 136.944 74.7398C136.656 73.9274 135.072 73.8319 134.592 74.6442Z" fill="black"/>
<path d="M126 82.6726C125.568 83.3894 126.192 84.1062 127.248 84.1062C127.824 84.1062 128.16 83.7717 128.16 83.1504C128.16 82.1469 126.576 81.7646 126 82.6726Z" fill="black"/>
<path d="M99.5519 28.1947C98.6879 28.4814 97.3439 29.4372 96.5279 30.3451C95.3279 31.6832 95.0399 32.4956 95.0399 34.1681C95.0399 35.315 95.2319 36.7487 95.4719 37.3699C96.0479 38.8513 99.1679 41.8619 100.896 42.5788C102.288 43.1522 102.576 44.2991 101.952 46.6407L101.712 47.6442L99.5039 46.4973C95.3759 44.4425 91.3439 45.2071 88.2239 48.6478C80.8319 56.8195 90.3839 69.8655 102.336 67.9062C105.984 67.285 108.288 66.138 110.688 63.7487C112.416 62.0761 112.8 61.885 113.808 62.2673C115.92 63.1274 122.88 62.9363 125.712 61.9327C129.072 60.7858 132.48 57.5841 132.48 55.577C132.48 53.9522 131.04 52.423 129.792 52.6619C128.592 52.9009 128.448 53.8566 129.552 54.2389C130.272 54.4779 130.56 54.9557 130.56 56.0071C130.56 60.0212 121.92 62.9841 115.632 61.0726C113.568 60.4991 113.52 60.4035 114.24 58.492C115.008 56.5805 114.912 51.0849 114.096 49.1734C113.28 47.2619 110.256 44.3947 107.52 43.0088C105.36 41.9097 105.216 41.4796 106.512 39.377C108.096 36.7965 110.928 34.4549 113.712 33.4035C116.928 32.2088 122.64 32.3044 125.184 33.6425C127.2 34.6938 128.64 37.0354 128.64 39.2814C128.64 40.2372 128.88 41.1929 129.12 41.3363C129.456 41.5752 129.6 40.285 129.504 37.4655L129.36 33.2602L126.96 32.3044C123.6 31.0142 116.784 30.9664 113.52 32.2088C112.224 32.6867 110.448 33.5947 109.632 34.2159C108.816 34.8372 108 35.1717 107.808 35.0283C107.664 34.8372 107.52 33.4991 107.52 31.9699C107.52 29.7717 107.328 29.1026 106.656 28.7203C105.264 28.0035 101.184 27.7168 99.5519 28.1947ZM105.168 30.5363C107.184 32.5434 107.136 35.6018 105.024 38.5168C104.208 39.6637 103.392 40.6195 103.296 40.6195C102.48 40.6195 98.7839 37.9911 97.9679 36.8442C96.8159 35.2673 96.6239 32.1611 97.5839 30.9664C99.4079 28.6726 103.104 28.4814 105.168 30.5363ZM107.616 46.4973C111.12 49.1734 111.936 50.7982 111.744 54.8124C111.648 56.6761 111.408 58.3965 111.216 58.5876C110.64 59.1611 107.52 55.8637 106.224 53.2832C104.928 50.7504 104.064 44.9203 105.024 44.9203C105.312 44.9203 106.464 45.6372 107.616 46.4973ZM99.2639 47.7876C103.44 50.3203 104.352 56.5805 100.944 59.2566C99.4559 60.4035 97.1519 60.4991 96.5759 59.4478C96.2879 58.9221 95.9999 58.8265 95.8079 59.1611C95.6159 59.4478 95.9039 60.1168 96.4799 60.6903C98.3999 62.6018 102.672 61.4071 104.16 58.492C104.544 57.7274 104.88 57.0106 104.976 56.915C105.024 56.8195 105.84 57.3929 106.752 58.2053C107.664 59.0177 108.768 59.8779 109.248 60.1168C110.304 60.6903 109.584 61.9805 107.328 63.7487C101.52 68.1451 93.0239 67.046 89.5199 61.4071C86.7839 57.0106 87.9359 50.3203 91.9199 47.7876C93.8399 46.5451 97.1999 46.5451 99.2639 47.7876Z" fill="black"/>
<path d="M3.35999 36.5575C3.35999 37.0354 5.99999 37.8956 6.95999 37.8C7.48799 37.7044 8.15999 37.4655 8.39999 37.1788C8.73599 36.8442 8.39999 36.7487 7.34399 36.9398C6.47999 37.131 5.66399 37.0354 5.51999 36.7965C5.23199 36.3186 3.35999 36.1274 3.35999 36.5575Z" fill="black"/>
<path d="M210.288 36.7487C209.904 36.9876 208.944 37.0832 208.128 36.9876C207.024 36.892 206.832 36.9398 207.36 37.2743C208.368 37.9434 210.288 37.8478 211.68 37.0354C212.736 36.4142 212.784 36.3664 211.92 36.3664C211.392 36.3186 210.672 36.5097 210.288 36.7487Z" fill="black"/>
<path d="M26.4 38.708C25.824 39.0903 25.824 39.1858 26.64 39.1858C27.168 39.1858 27.936 38.9469 28.32 38.708C28.896 38.3257 28.896 38.2301 28.08 38.2301C27.552 38.2301 26.784 38.469 26.4 38.708Z" fill="black"/>
<path d="M187.44 38.6602C187.584 38.9469 188.496 39.1858 189.456 39.1858C191.568 39.1858 191.424 38.9469 188.976 38.5168C187.68 38.2779 187.2 38.3257 187.44 38.6602Z" fill="black"/>
<path d="M37.92 39.5203C42.288 41.1451 44.688 41.9097 44.304 41.5274C43.824 41.0496 38.496 39.1858 37.728 39.2336C37.44 39.2336 37.536 39.377 37.92 39.5203Z" fill="black"/>
<path d="M175.056 39.9982C173.808 40.4283 172.848 40.8584 172.992 40.954C173.088 41.0496 174.432 40.715 175.968 40.1894C177.552 39.6637 178.464 39.2336 178.08 39.2336C177.696 39.2336 176.352 39.5681 175.056 39.9982Z" fill="black"/>
<path d="M37.248 41.5274C36.816 41.9575 36.624 42.531 36.816 42.6743C36.96 42.8655 36.672 43.0088 36.096 43.0088C35.52 43.0088 34.128 43.869 33.072 44.9203C31.44 46.4973 31.248 46.8319 32.064 46.8319C32.64 46.8319 33.216 46.3062 33.6 45.446C34.32 43.6779 36.288 43.0566 37.392 44.2513C38.112 44.9681 38.112 45.0159 37.344 44.777C36.24 44.3947 34.896 45.4938 35.328 46.4973C35.712 47.5965 36.096 47.5487 37.44 46.115C38.112 45.3982 38.88 45.0159 39.36 45.1593C39.84 45.3026 40.464 45.1115 40.8 44.6814C41.136 44.2991 41.808 43.9646 42.288 43.9646C42.816 43.9646 43.2 43.7257 43.2 43.4867C43.2 42.7699 41.712 42.9133 40.8 43.7257C39.552 44.8726 38.256 44.108 38.592 42.4832C38.928 40.8106 38.304 40.3805 37.248 41.5274Z" fill="black"/>
<path d="M177.264 41.9575C177.696 44.0602 176.64 44.777 174.768 43.6779C173.616 43.0089 173.184 42.9133 172.704 43.3912C172.272 43.8212 172.416 43.9646 173.376 43.9646C174.048 43.9646 174.864 44.2991 175.2 44.6814C175.536 45.1115 176.16 45.3027 176.64 45.1593C177.12 45.0159 177.84 45.3982 178.464 46.1151C179.712 47.5009 180.24 47.5965 180.672 46.4974C181.056 45.5416 179.664 44.2991 178.704 44.6336C178.368 44.777 178.08 44.6814 178.08 44.4903C178.08 43.8212 179.472 43.4389 180.72 43.7735C181.392 43.9168 182.064 44.5859 182.352 45.446C182.784 46.7363 184.32 47.4531 184.32 46.354C184.32 46.0673 184.032 45.8761 183.696 45.8761C183.312 45.8761 182.784 45.3505 182.496 44.6814C182.16 43.9646 181.392 43.3434 180.576 43.2C179.856 43.0566 179.04 42.4832 178.8 41.9097C178.512 41.3841 178.032 40.8106 177.648 40.7151C177.12 40.5239 177.024 40.8106 177.264 41.9575Z" fill="black"/>
<path d="M46.08 42.7699C46.08 42.8655 46.56 43.2478 47.184 43.5345C48.144 44.0602 48.192 44.0602 47.568 43.3434C46.944 42.5788 46.08 42.2442 46.08 42.7699Z" fill="black"/>
<path d="M168.432 43.3434C167.808 44.108 167.856 44.1558 168.624 43.5345C169.056 43.2 169.44 42.8177 169.44 42.7221C169.44 42.3398 169.056 42.5788 168.432 43.3434Z" fill="black"/>
<path d="M207.84 43.4389C207.84 43.6779 208.08 44.0602 208.32 44.2035C208.608 44.3469 208.8 44.2991 208.8 44.0124C208.8 43.7734 208.608 43.3911 208.32 43.2478C208.08 43.1044 207.84 43.1522 207.84 43.4389Z" fill="black"/>
<path d="M45.7439 44.777C46.1759 44.8726 46.8479 44.8726 47.1839 44.777C47.4719 44.6336 47.1359 44.5381 46.3199 44.5381C45.5519 44.5381 45.2639 44.6336 45.7439 44.777Z" fill="black"/>
<path d="M169.104 44.777C169.536 44.8726 170.208 44.8726 170.544 44.777C170.832 44.6336 170.496 44.5381 169.68 44.5381C168.912 44.5381 168.624 44.6336 169.104 44.777Z" fill="black"/>
<path d="M39.648 47.3575C38.784 48.0265 38.448 48.6478 38.64 49.2212C38.784 49.6991 38.64 50.6549 38.352 51.3239C37.728 52.6142 37.968 53.3788 39.744 56.246C40.32 57.154 40.608 57.2496 41.376 56.8195C42.432 56.246 43.296 56.6761 42.288 57.2973C40.896 58.1575 44.496 61.2159 46.176 60.5469C46.56 60.4513 47.088 59.7823 47.472 59.1133C48.336 57.4885 47.328 55.2903 45.6 55.0513C44.928 54.9558 44.112 54.6212 43.776 54.3823C43.344 54 42.912 54.0956 42.24 54.7168C41.136 55.7204 40.704 55.4814 40.512 53.7611C40.416 52.9487 40.896 51.9929 42.048 50.846C43.632 49.1735 43.776 49.0779 46.128 49.3646C47.472 49.5558 49.2 49.9858 50.016 50.3681C50.832 50.7982 51.696 50.9894 51.936 50.846C52.176 50.7027 52.704 50.846 53.088 51.1805C53.472 51.4673 53.904 51.6584 54.048 51.515C54.192 51.3717 53.376 50.5115 52.224 49.6513C51.072 48.7912 50.064 47.931 49.92 47.7398C49.776 47.5965 48.912 47.3097 48 47.1664C46.8 46.9274 46.512 46.9752 47.04 47.3097C47.616 47.692 47.52 47.7876 46.56 47.7876C45.84 47.7876 45.072 47.5487 44.736 47.2142C43.728 46.2106 41.04 46.2584 39.648 47.3575ZM51.6 50.177C51.744 50.4159 51.648 50.6549 51.408 50.6549C51.12 50.6549 50.88 50.4159 50.88 50.177C50.88 49.8903 50.976 49.6991 51.072 49.6991C51.216 49.6991 51.456 49.8903 51.6 50.177ZM43.68 57.823C43.68 58.0619 43.44 58.3009 43.152 58.3009C42.912 58.3009 42.816 58.0619 42.96 57.823C43.104 57.5363 43.344 57.3451 43.488 57.3451C43.584 57.3451 43.68 57.5363 43.68 57.823Z" fill="black"/>
<path d="M171.072 47.1664C170.592 47.5009 169.776 47.7876 169.248 47.7876C168.384 47.7876 168.336 47.692 168.96 47.2619C169.488 46.9274 169.248 46.8796 168 47.1186C165.888 47.5009 161.328 50.8938 162 51.5628C162.144 51.6584 162.48 51.515 162.816 51.2761C163.152 50.9894 163.776 50.7504 164.16 50.7504C164.544 50.7504 165.744 50.4159 166.8 49.9858C169.968 48.7912 172.032 48.9823 173.712 50.7027C174.816 51.754 175.2 52.6142 175.2 53.8089C175.2 55.6248 174.96 55.7681 173.712 54.669C173.088 54.0956 172.656 54.0478 171.888 54.4301C171.36 54.7168 170.496 54.9558 169.92 54.9558C169.248 54.9558 168.72 55.4336 168.24 56.485C167.664 57.8708 167.712 58.1575 168.576 59.4C169.392 60.4991 169.776 60.6903 170.832 60.4513C172.608 60.0212 174.576 57.8708 173.712 57.2973C173.376 57.1062 173.232 56.7717 173.424 56.5805C173.568 56.3894 174.096 56.5327 174.528 56.8673C175.392 57.6319 175.68 57.3451 177.168 54.1434C177.936 52.5186 178.032 51.8973 177.6 51.085C177.264 50.5593 177.168 49.7947 177.312 49.4124C177.456 48.9823 177.072 48.1699 176.304 47.5009C174.912 46.2106 172.56 46.0673 171.072 47.1664ZM172.8 57.823C172.8 58.0619 172.608 58.3009 172.32 58.3009C172.08 58.3009 171.84 58.0619 171.84 57.823C171.84 57.5363 172.08 57.3451 172.32 57.3451C172.608 57.3451 172.8 57.5363 172.8 57.823Z" fill="black"/>
<path d="M54.24 52.7575C54.24 53.1876 54.48 53.5221 54.72 53.5221C55.008 53.5221 55.2 53.331 55.2 53.092C55.2 52.8053 55.008 52.4708 54.72 52.3274C54.48 52.1841 54.24 52.3752 54.24 52.7575Z" fill="black"/>
<path d="M160.8 52.8053C160.8 53.1876 160.992 53.5221 161.28 53.5221C161.52 53.5221 161.616 53.1876 161.472 52.8053C161.28 52.423 161.088 52.0885 160.992 52.0885C160.896 52.0885 160.8 52.423 160.8 52.8053Z" fill="black"/>
<path d="M116.976 89.554C116.832 89.8885 116.016 90.3186 115.152 90.5097C114.288 90.6531 113.328 91.0354 112.944 91.3221C112.224 91.9434 112.128 94.7628 112.8 96.0053C113.28 96.9133 116.016 98.2991 116.448 97.869C116.592 97.7257 116.208 97.4867 115.584 97.2956C114.24 96.9611 113.088 94.715 113.808 93.8549C114.144 93.4726 114.096 93.1858 113.664 92.9947C113.184 92.7558 113.184 92.6602 113.664 92.4212C114 92.2779 114.576 91.8478 114.912 91.4655C115.296 91.0832 115.968 90.9398 116.4 91.0832C118.224 91.8 118.416 94.954 116.592 94.3805C116.064 94.1894 115.68 94.285 115.68 94.5717C115.68 95.2885 116.448 95.623 117.312 95.2885C118.416 94.8584 118.704 93.2814 117.888 92.0389C117.504 91.4177 117.312 90.4619 117.456 89.8885C117.744 88.7894 117.36 88.5027 116.976 89.554Z" fill="black"/>
</g>
<defs>
<clipPath id="clip0_151_42">
<rect width="216" height="108" fill="white"/>
</clipPath>
</defs>
</svg>
